/* XPM */
static char *barrel[] = {
/* columns rows colors chars-per-pixel */
"64 64 12 1 ",
"  c #000000",
". c #3E3015",
"X c #363636",
"o c #231C0A",
"O c #53391C",
"+ c #724928",
"@ c #4F4F4F",
"# c #6A6A6A",
"$ c #8C5734",
"% c #9D623B",
"& c #A4693F",
"* c gray52",
/* pixels */
"                                                                ",
"                                                                ",
"                                                                ",
"                                                                ",
"                                                                ",
"                                                                ",
"                                                                ",
"                                                                ",
"                                                                ",
"                                                                ",
"                                                                ",
"                                                                ",
"                                                                ",
"                                                                ",
"                                                                ",
"                                                                ",
"                                                                ",
"                                                                ",
"                                                                ",
"                                                                ",
"                                                                ",
"                                                                ",
"                                                                ",
"                                                                ",
"                                                                ",
"                                                                ",
"                                                                ",
"                                                                ",
"                                                                ",
"                                                                ",
"                                                                ",
"                       ###############*#*#                      ",
"                     ##X@@@@@X@@@@@@@@@#####                    ",
"                    ##@X ooooXoXoXoXX@X@X@#X#                   ",
"                    ##*****#########@@@@X@XXX                   ",
"                   $$##**##@##@@@@@X@@X@XXXX..                  ",
"                   +$+$$@++++O++OOOOXO......O.                  ",
"                  $+$$%&$%%%$$$$$$$++++OOOOO.OO                 ",
"                  +%+&&$$%%%++$$$$+OO++OOO+O.O.                 ",
"                  +$+%&$&%%%+$%$$$$+O++++OOO.OX                 ",
"                 @@###%$&%%$$$$$$$++O++++OXXXXX                 ",
"                 @###*#**########@@@@@@@@X@XXXX.                ",
"                 @#####*#@#@@#@@@@@@@@XX@XXXXXX.                ",
"                 ++@@####@##@@@#@X@@@@XXXXXXoXO.                ",
"                 +%+%$$O$$++.+OOOOOOoOoOO..OO.O.                ",
"                 +$+%&&$&%%%+%$$$$++O++++OOOO.O.                ",
"                 +$+%&&$&%%%$$$$$$++O+++OOOOO.O.                ",
"                 +$+%&&$&%%%+$$$$+++O++++OOOO.O.                ",
"                 +$+&&&$&%%%$$$$$+++O++++O.OO.O.                ",
"                 +$+&&&$&%%%+$$$$$++O++++O.OO.O.                ",
"                 $$+%&&$&%%%+$$$$+++OO++OOOOO.OO                ",
"                 #$+%&&$&%%%+$$$$$++O++OO+.OO.XX                ",
"                 ##**#&$&%%%+$$+$+++O++++OOXXXXX                ",
"                 @####**########@#@@#@@@@@@XXXX                 ",
"                 @@######@##@#@@@X@@@X@XXXXXXXXO                ",
"                  O@@#@####@@@@#@@@@@@XX@@X..oOX                ",
"                  ++++++++OO.OOOOOOOoOOOO..O.O.O                ",
"                  +$+%&$%%%$O$$+$+$+OO+O+..O.O.                 ",
"                   +$$&+%$$$+++$+++OO+++O.OO.O.                 ",
"                   #$+$$+$%+++++$++OO++OO.O.O.                  ",
"                   #***$+$$$+++++++XO+OO.X...X                  ",
"                    ####*#*######@@@@@XOXXXoo                   ",
"                     ######@#@@#X@X@@X@XXXoX                    ",
"                       @@X@@X@XXXXXXXoXooX                      "
};
