/* XPM */
static char *bluestone[] = {
/* columns rows colors chars-per-pixel */
"64 64 10 1 ",
"  c black",
". c #212121",
"X c #00004F",
"o c #000073",
"O c gray33",
"+ c #000091",
"@ c #0000AD",
"# c #0000CC",
"$ c #0000E0",
"% c #4040FC",
/* pixels */
".o+oooooo+o+oooooo+o+o.O+++o+++++++++++o++++++++++++.Oo+ooo+ooo.",
".@+@@@@@@++@@@@@@++@@+..@##@@#@@@@@@@##@@@@@@@@#@@#@..@@@@@@@@@.",
" @@@++o@@++@+o+++@oooX .@@@@++#+oo++@++oo@@@+@@@@++o .@@@++@@++ ",
" @+o++@+oo++@o++ooo+oX .@@@@++o+XooXo@@XoooooXoo+ooo .@@@@++@@X ",
" @+@o@#+ooo+++ooX+oXXX .                             .@@@##@@oo ",
" ++o@#@oo+o@++++oooXXX .@@@@+@@@@@@@@@+@@+@...........@#@@+oooX ",
" @++@@+@@++@@++ooXXXoo .@@@@@@++@++@++@#@@@ .@@@@++o..@++@o++Xo ",
" @@+@@@@++o@++++oooXXX .@@#$#@@@@++@@@+@@+@ .+++++oo .@+++oo++o ",
" @+o+@+++o+oo+o+oo+oXX .@@#@#+@@@#++@o@o+@o .@+++o+o .@@@+@+++X ",
" ++++@ooo@@oXoXoX+ooXX .@@@@++@@@+@@++ooo+o .+@++oXX .@+++@@+XX ",
" +o++++o+@@oooXoXXooXX .@@@@@@+@#@+@oX+oooX .@@+o@oX .#o@@o++XX ",
" ++++o++ooXoXXooXXXXXX .@@@@@@@@@@@@Xoo@oXX .@oo+ooX .@#+ooXooX ",
" @o+oo++oooX+oXooXXXXX .@@+@+@++@@@@++ooXXX .@+++ooX .@ooooo++X ",
" ++++ooXXXooXoo.XX oXX .@@$#+o@++o+o+++oXoX .@@++ooo .#oooXXXXX ",
" @o+oXooooXXXXXXXXXXXX .@###+++@@o+oo+o+ooX .@o+@XXX .          ",
"                       .+@@+++o@+@+++oXoXXX .+@++@Xo ...........",
"@@@@@@+@+@@+@@+ @@@@@+@ @@++++@+@@+++ooXXXX .+@+@+oo .@+@@ #@@@#",
"#@@++#@@+@@o@++ @@+#@o@ +@@@@@+@+++XooXXXXX .+++oooX .@@+o @#@@@",
"@@+@+@+++++oo@+ @#@@+o+ @@+@#++o++ooooXXXXX .@+XXXXX .@@@+ #@@@@",
"@@+@@++ooo@oooo @#@@++o +@@@@++++XooXXXooXX .+oXoXXX .++oX @@#@@",
"+++@@@+o++o+X++ @@+o++o @@@+++++XXooXooXXXX .@ooXXXX .@XoX ##@@@",
"@@++@$+++oooooo @+#o+oo                     .             .@@@@@",
"@+o++@+o++XooXX @@+oooX .........................@@@@@@@@..#@@++",
"@@++o++++oooo+X @@++oXo .@@@@@@@@@@@@@@@@@@@@+@..@#@#@@++ .@@+++",
"@@++@+++@+ooXoX @#o++XX .@@@@@#@@@@@+#@o@@@@++X .@#@#@@++ .@#@++",
"@++++@@oo+++oXo @oXoooo .@#@@#$$#$$@@@@@#+@@++X .@####@+o .@@@@@",
"@+o+@@@@+oo+oXo +oXoXXo .@@@###$@$#$@o@oo@o+@Xo .@@+#@++o .##@@+",
"@+@+++@@oooooXX         .@@@@@##@@##@@o+oo@ooXX .@#@@+++o .@@#@@",
"@+o@++@+XoXoXXX .........@@@@@@+@@@@@@o++ooXXXo .@##@+++o .#@@@@",
"+++@@@+oooXooXX .@@@@@@..@@@#@++@@@++@oo+ooooXX .@##@+@+X .@@+@@",
"++++@@ooXXXXXXX .@@++++ .@#@@@+++@@o@@@o++XoooX .@@#++++X .#@+@o",
"+++o+ooooo+ooXX .@@@+++ .@#@@@@@+@ooo+@oXoXoooX .@@@+@@@o .@++@+",
"++@+ooooXo+oXXX .@@+ooo .@#+++@@@+oooooooXXXXXX .@@#+@@+o .#++o+",
"+@+o+oooXXXooXX .@@+@+X .@@@@++@+oo+ooXooXXXXXX .@+#++++X .@@ooo",
"o+++ooooXXXXXoX .@@@ooo .@o#o@@o+ooo+oXoXooXXXX .@#@@+Xoo .#@++@",
"+++oo++oXooXXXX .@@@@XX .@@@o@@ooXXooooXXXXXXXX .@#+@o+oX .@@@++",
"o+oo+X+oXXXXXXX .@+@X+o .@@o@@oXXXXoooXXXXXXXXX .@#@o+++o .#++@o",
"o+oXoXoXoXXXXXX .@++@XX .                       .@@@ooooX .@++++",
"o+@+oooXXXXX XX .@@+@+X .........................+@@@oXoX .#@+oo",
"o++ooooXXXXXXXX .@@++Xo .@+@+@+@@@+@@+@@+@+@@+@..@@@@@+XX .@@+o+",
"                .@@ooXX .@#@#@@#@@@+@@++++o@+@o .@#@@@+XX .     ",
".....Xooo+++ooo..@@++oX .@@###@@@@#@++@@++++++o .+@+@++XX .++++ ",
".+@@#@@#@##@@@#..@@+ooo .@####@@@@#@o+oo@@++++o .+#@oooXX .++oo ",
".@@@@#@@@@@@@@@ .+++Xoo .@@@@###@@@+o+ooo+o+o+X .@@+oXXoX .++oo ",
".@@@@#$@#@#+@@@ .@++XXo .@@#@###$o@+o+ooo++o+oX .+@oooXXX .+ooX ",
".@##@$$@++@@@@@ .       .@@@@@#$$@+@+ooooXXoooo .+ooXXXoX .+ooX ",
".@@@@@@@+@+@@++ .........@@@#+@@@@@@@@ooXX+ooXX .         .+oXo ",
".#@@++@@@++@#@@ .@@@@@+..+@##+++@@@+oo@+ooXXXXX ............... ",
".#@+@@@+@@@@o@+ .#o@+++ .+#@@@+@@#@@ooo+oooXXXX .@@@@#@#@#@@#@@ ",
".@@#@@+@+@oo@+@ .@@@@@o .@@@@@@@#@#@@o+oXXoXoXX .@@@@@@@@@+@@@+ ",
".#@#+@@@@++Xo@@ .@@o@oo .@@@+@+@@#@#@@+XXXXoooo .@@@##@@@+@@@+o ",
".@@+@@$#@o++o+@ .#@@++@ .@#@@@@++@#@@+@ooXXXXXX .@#@###@@++++oo ",
".@@@@$%$++@++o+ .@@@++o .++#++ooo++@@oo+XoXXXXX .@+#+##@@@@oooX ",
".#@@@@$@@o@@XXo .#@@@oo .@@#@++o+o+o+XX++oooXXX .@@@+++@@ooo+Xo ",
".@@#@@@+++ooXXX .@@@++o .@+@@+#oo+oo+oX+++ooXXo .@@@+@+@ooX+Xoo ",
".@@@@@+o++@+oXo .#@@o+o .+@@@@@+ooo++Xoo++ooXXX .@@@@++@oooooXX ",
".@@#@++@o@@+ooX .@@@+oo .+@@+@++@@ooXoXXooooXXX .@@@@+@@++o++XX ",
".#+@+++oo++@+oo .#@@Xoo .@@@++o+@++ooooXXXXoXXX .##@o@@@@+o+++X ",
".@+++++oXoo@@oo .@@@+oX .@@@@+#@o@+XXoooXXXXX X .@@@+@@@@+o+ooX ",
".@@oX+o+oo+XoXX .@@XXoX .+@@+@@@XoooXXXXX.XXXXX .@@@@+@o+ooooXX ",
".@+++ooooXXoXoX .@@+oXX .@+@@@++XXXoXXXXoooXXXX .@#@+@++oooooXX ",
".@+oo+ooooooo+o..@+oo+o..@@+++oo++ooooXXooooXXo..#@@o++oo+o+ooo ",
"O+++ooo+ooo+o++..++o+o+O.@#+++o+o+o+o+oo+oooo+o.O@++o+ooo+ooo++.",
"OOOOOOOOOOOOOOOOOOOOOOOOOOOOOOOOOOOOOOOOOOOOOOOOOOOOOOOOOOOOOOO."
};
