/* XPM */
static char *colorstone[] = {
/* columns rows colors chars-per-pixel */
"64 64 11 1 ",
"  c #382C14",
". c #2E2E2E",
"X c gray11",
"o c #493819",
"O c #5C4020",
"+ c #6E4925",
"@ c #4D4D4D",
"# c #6E6E6E",
"$ c #80502C",
"% c #8F8F8F",
"& c gray66",
/* pixels */
"##%oOOO+OOOOOOOOOOOOOOoooOOO+ooo##%#####X...X..@##@#@@@@@@@#@@#%",
"%##@ooO+OOOOOOOOOOOOOOoooOOOooo@####%#%#@.....@##@#@@@@@###@####",
"####@oO+OOOOOOOOoOOOOOoooOoOo@@##@OOOo@##@....##@#@@@###@###@#@#",
"#####@o+OOOOOOOOoOOOOOoooooo@@%@oOoooo o@#@@@##@##@##@#@@@@@@@@@",
"@@##%#o+OOOOOOOOOOOOooo oo@##%@ooooooo o@##@##@#@@#@@#@@@@#@#@#@",
"@@@###oOOOOOOOOOOOOOoo o@##%#oOoooooooo  #%&#@#@@@@@@@@@@@@@@@@@",
"@@@@###ooOOOOOOOOOOooo@@##%@oooooooo oo  #&#@#@@@@@@@@@@@@@@@@@@",
"@@@@@##@oOOOOOOOOOooo@####oOoooooooo  o  #%%#@@@@@@@@@@@@@@@@@@@",
"@@@@@@##@oOOOOOOooo@##%#@Oooooooo oo  o  #%#@@@@@.@@@@@@@@@@@@@@",
"@@@@@@%##@ OoOO  @##%##Oooooooooo oo  o  #%@@@@@@@@@@@@@@@@@@@@@",
"@@@@@@%###@o O @@##%@@OOooooooooooooo   .#%#@@@@@@@@@@@@@@@@@@@@",
"@@@@.@##%##@@@@@#%##oOooooooooooo ooo   @####@@@@@@@@@@@@@@@@@@.",
"@@@@@.####@@##%%%##oOooOOoooooooo  oo   @#%#@@@@@@@@@@@.@@@@@@@@",
"@@@@.###@@@#@#&%%#oooOooooooooo o ooo   ####@@@@@@@@@@@@@@.@@@@@",
"@@@.###@@@@@@.#%#OooOoooooooooooo ooo  @#%#@@@@@@@@@@@@@@@@@@@@@",
"@@.@%###@@@@@@@##OoOOoooooooooooo ooo  @##%#@@@@@@@@@@@@@@@.@@@.",
"@.#####@@#@@@@@@#OoOooooo oooooo  ooo  @##%@@@@@@@@@@@@@@@@@@@@.",
".##@@##@@@@@.@@##OoOoooooooooooo  oo   #+o#@@@@@@.@@@@@@@@@@@@.@",
"##@oo@##@##.@@@@#OOooooooooooooo oo  o#OOO@#.@@@@@@@@@@@@@@@@@@.",
"#@ Ooo@#@@.@@@#@#@oOooooooooooo      #+OOOo#@@@@@@@@@@@@@......#",
"@OOooo ##@@@.@@@@#@oooooooooooo    @##ooooo###.@.@@@@@@.@..@.@##",
"oOoooo O#@@@@@#@@##ooooooooooo    @##%%@###%%##...........@.@##@",
"Ooo oo .##@@@@@#.##@ooooooooo   .@#@@@@@@@#%&%###.@.@@.@@..@#%@o",
"oooOoooo###@@@@@.### ooooooo  .@##@@@.@@@@@#%%%##@.@.@@.@.@##@oo",
"oooooo o@###.@@@.#%#. oooo   @#%#@@@...@.@.@%%%###@.@....####oOo",
"oooooo o #%#.@@@.####       .###@@.@@.@.@@.@###@###@..@o@###@ooo",
"oOoooo oo@###...##%#%@    @@@%@@@@@@.@@.@..@###@@@%##@@@#%@@oooo",
"oOoooo oo@#%####%#++@@@@@@##%@@@.@@.@..@.@.@##@@@@@#%#%%##@ooooo",
"oooooo oo@##%###O+OOOO####%#@@@..@@@..@@.@.@@#@@.@@#%%%%##oooooo",
"ooooo  o @%####OOOOOOOO####@@@@@@@..@.@..@@##@@@@@@@###@#@OooooO",
"ooooo oo @#%####OOOOOOo%##@@@@@..@.@@..@..##%######@###@@@OooOOo",
"ooooo  oo@%##@#%#OOOOoo#%@#@@@.@@.@.@.@.. #@++++O++++oO+##ooooOO",
"ooooo o @@##@#@#%#oooo#%@@.@@@@.@.@.@.@.@@#+++OOOOOOOoOOO#oooooo",
"oooo   @###@@@@#@%##@@##@@@@@@.@.@.@...@.@#+o+OOOOOOOoOOo#oooooo",
"oooo o@#@%@#@@@@@##%%%#@@@@@@@.@@@.@..@..@#$O+OOoOOOOoOOO#oooooo",
"ooo  @@###@#@#@#@@##%%%@@.@@@@@.@.@...@.##@$O+OO+OOOOoOOo#oooooo",
"ooo @@#%#@#@@#@@#@@#%%%@..@@@@@@@@.@..@@##+$O+OOo+OOOoOOO@@ oooo",
"oo @#####@@@@@@@@@#@#%&#@@.@@@@...@....@##++O+OOOOOOOoOOO##@oooo",
"o @@####@#@##@@@@@@@@#%#..@@@@@@@.@@...#%@++OOOOOOOOoo+Oo###@ oo",
" @###%##@@@@@@#@#@@@#@%%@@..@@@@.@.@..@##+++O+OOOOOOOOOOo#%#@@o ",
"@@#%%##@@#@@#@@#@@#.@####.@.@@@.@@.@..@##+O++OOOOOOOOOOOo@#%##@@",
"##%&%#@@@@@@#@@@#@@.@@@@@@...@@@@.@...@%@+++++OOOOOoOOOOo#...@@#",
"##%%#@@@@##@@#@#@@#@@#@##@@...@@@@@..@##+O++++OOOOOOOOOOo@....@@",
"X@%%#@@#@#@@@@@@@@@@.@@@@@@#@..@..@..@#%+OO++OOOOOoOOOOOo#....X.",
".X@#@@@@@#@@@@#@@@@@@@@@@@##@....@...#%#o+OO+OOOOOOOOoOOo#....X.",
".X@##@@##@@##@@@@#@@.@@@@.@%%@.@.@@@@####oOO++OOOOOOOOOOo@.. .X.",
"X@###@@@@@@@@@#@@@@@.@#@@@#%%%@.....@####@oOO+OOOOOOOOOoo#X..X..",
"@#@#@@@##@#@#@@@@@@@.@@.@@#@o@#@....#%#.@##oOO+OOOOOoOOo@@...X..",
"@####.@#@@@#@@#@@@@@..@@@@@oo @%##@###....###oOOOOOOOoo@@# .XXXX",
"#%####@@#@@@@@@@@@@@..@@#@ooooo @##%#......###OoOOOOo @####@@@@@",
"%#%%%%#@@@@#@#@#@@@@@@@@@Oooo oo @%#@.......###@OOooo@#@@@@#@@#%",
"#@+O@%%#@.@@@@@@@@@.@@#@ooooo o   ##......X..#%#@oo@@##@@#@@@@##",
"++OO++@#@@.@@#@@@@.@@#@oooooo ooo %...X...X...###@@@@%#@#@@@@@#%",
"OOOOOO++@#@.@@@@@.@@@@Ooooooo o  @#..X.XX...X..#%##@%@@@@@@#@@##",
"OoOOOOOO+o#@.@@.@@#@oOooooooo   @#......XX.X....###%%@@@@@@@@@#O",
"OOOOOOOOOoOO@..@@#oOOoooooooooo @........XX......#%%#@@@#@@@.@#+",
"OOOoOOOoOoOOo@@@#@oOOoooooo oo .#... .....XX......@%@@@@@@@@@@+O",
"OOoOOOOOOoOoo@@#@oooOoooooooo @#@...X.X..XXXX.X...@#%@#@#@@@.#+O",
"OOOOOOooO oo@##@OoooOoooooo   @#@...X.....XXXX......##@@@@@@@+OO",
"OOOOOOooooo@%##@oooOOooooooo @#@......X....XX.X.. ...@@@@@@@@+OO",
"OOOOOOOo o@%#%#@ooooooooooo @#.....X......XXXX.XX....X#@@@@@+OOO",
"OOOOOOoo ##@@@##@oooOooooooo@#.........X.....XX.X....X@#@@@#+OOO",
"OOOOOoo @#@@@@##@ooOOooooo @#.........X.....XXX.XXX..X@#@@#OOOOO",
"OOOOo o##%.@..@@#oooooooo @@#X...@..X...X...XXX..XX...@%###+OOOO"
};
