/* XPM */
static char *eagle[] = {
/* columns rows colors chars-per-pixel */
"64 64 16 1 ",
"  c #2E2E2E",
". c #500000",
"X c #700000",
"o c #543C1C",
"O c #4F004F",
"+ c #67006B",
"@ c #757575",
"# c #4E4E4E",
"$ c #724F22",
"% c #A10000",
"& c #D80101",
"* c #B55502",
"= c #B3B3B3",
"- c #959595",
"; c #C5C5C5",
": c #A5376A",
/* pixels */
"        #  #     #      #  ##  #      # #o #    #   #    # #   #",
"#############################################@######  ######### ",
"$*&&&&&&&&&&%###&&&&&&&&&&&&&&&&&&&&%# #&&&&&&&&&&&&&&&&&&&%&&%#",
"@*&&%&%%&X%%X ##&%X%%&X%X%%&%%X&X%&%X # &%&%&%&&X&X%%&%%%X%%&** ",
"**$;==;==;=;=;=======;=======;==========;==;=;========;======**$",
"=*o@@@@@@@@@@@@@@@@-@@@@-@@@@@@@@@@-@@@-@@@@@@@@-@-@@@@@@@@@@$=$",
"$o*@@-@--------==-----=--------=-----------=---------=---@@@@o*$",
"$*.-@*&..#XXXXXXXXXXXXX.XXXXXXXXXXXXXXXXXXXXXXXXXX%%&&@...@=@o o",
"#%%=@%;-@.@==;=;================;======;========;=;=;@.@@-&-@.. ",
"#X.;-.-;-@-===-@=;;==================;=========-+@===-=@=;%@@.. ",
"## ;=.-=;-@@--#O@-;;;;======;=======;;======;;-@+O-==--=;@ @@   ",
"#  ;=#@-=;-@@-OO+O--;;;;;;==O@#OOOO***=;==;;-#O+OO----=;;@#@-   ",
"&&&=;o@--=;-@@#OOOOO@==;====OOOOO-O****;==-#++OOO#---=;==@.-=..&",
"&%X=;X---==@O@##OOOOO+O@-===@OOOOOO*-==-$++OOOOO#@@O#===@@.==..%",
"X%%=;%----#++#@@#OOOO+OOO@-==OOOOOO-=-#++O:OOOO#@#+OO@=-@-X==..%",
"X%%==%=---O+++O @# OO+OOO+O==OOOOOO==O+++O+OO ###O++++--@-X==..%",
"%%X==%;=--OOO+++O###OOOOOO#==OOOOOO==#OOOOOO ##OOO++++----X==..X",
"X%X==X;==-#OOO+++OOOO  OO-==@OOOOOO@==@O O  OOOOO++++#-@@-X==..%",
"X%.=;X;;;-##OOO+++O+ O O@O@=OOOOOOOO=@ @OOOOOOOO++++#@@---.==..X",
"...=;X;;#O@###O+++++OO OOOO==OOOOOO==OOO OOO+OO+++#@####-=X;=...",
"   ==X=;+OO#####+++++OOOOOO@@OOOOOO@@OOOO O+OO+O#-@##O O--X==   ",
"###;=X;;+OOOOO  ##@+OOOOOOOOOOOOOOOOOO OOOOO+@@--#OO OOO==X==   ",
"#&&;;X;;+OOOO  OOO+:+O+OOOOOOOOOOOOOOOOOOOOO++O+OOO OO O=-X==.. ",
"#&%;;%;;O+OOOOOO OO+OOOOOOOOOOO+OOOOOOOOOOOO:+OOOOOO OOO-=.==.. ",
"#&&==%;-@O+OOOO O O+O+OOOOOO+@@@@##@+OOO+O++++OO OO  OO@-=X==X. ",
"#%X==X=--@#OOOOOOOOO+OOOOOOO@++++:+@OOO+++O+O+OOOOOOO @--=X;=.. ",
"#&%==X=OO#@@@#@##  OO++OOOOO-:++++:@OOOO+++O+###   ####++;%;=.. ",
"#%X==.=OOOOOOOOOOOOOOO+++OOO@++++++@OO+++OOOOOOOOOOOOOO++;%;;.. ",
"#&%==.=OOO+OOOOOOOOOOOOOOOOO@:+++++@O+OOOOO+OOOOOO OOO++O;%=;.. ",
"#%%--.-OOOOOO+OOOOOOOOOOOOOO#++#+:+#OOOOOOOOO OOOOOOOO+++;%;;.. ",
"## -=.=OOO+OOOOOOOO#OOOO#OOO-#+#++#-OOO#OOOO#OOOOOO OOO+O=X=-   ",
"###=-X-@OOOOOOOO#@OOOOO#+OOO#@-#+=@#OOO+#OOOOO@  OOOOO+O@=.==   ",
"%&%==X=-#OOOO#@@OOOOOO@OOOOOOO#@-#OOOO+OO@OOOOOO@##OOOO@-=X==..&",
"%%%;=X==;----@OOOOOOO@OOOOOOOOOOO+OOOOOOOO@OOOO OO@----;=-.==..%",
"%%%==X==--@OOOOOOOOO@OOOOOOOOOO+OOOOOOOOOOO@OOOOOOOO+@----.--..X",
"%X%==X=;OOOOOOOOOOO@OOOO@O@OOOOOOOOOO@O@OOOO#OOOOOO+O+OO--.--..X",
"%XX==X==OOOOOOOOOO@OOOO@-@OOOOOOOOOOOO@-@OOOO@OOOOOOO+OO--.--..%",
"%%X==X==@OOOOOOOO@OOOOO-OOOOOOOOOOOOOOOO-OOOOO@OO++O+OO@--X--X.X",
".X%==X==-OOOOOOO@OOOOO-OOOOOOOOOOOOOOOOOO-OOOOO@OOOOOOO-==.==..X",
"...==%===@OOOOO@OOOOOO+OOOOOOOOOOOOOOOOOOOOOOOOO@OOOOO@===X==...",
"  #=;%;;;=@+OO@OOOOOO-OOOOOOOOOOOOOOOOOOO+=OOOOOO@OOO@====X==   ",
"###;;%;;;==----+OOOO-=:OOOOOO@OOOO@OOOOOO+=-OOOOO----=====X==   ",
" &&;;%;;;=====--OOO-===@OOOOOOOOOOOOOOOO@===-OOO--;=======%;=.. ",
"#&%==%=;=====@**@====@*+OOOOOOOOOOOOOOO+O*@====@**@==;;;;;X;;.. ",
"#&%==X=====;=**********$$+O@;OOOOOO=@OO##**********;;;;;;;%;;.. ",
" &%==X=======;@#$****$#@====OOOOOOOO====@$$****$@@===;;=;;%;;.. ",
" &%==X=======-**********===OOOOOOOOOO===**********-=====;;X;=.. ",
"#&%==X==-====*#*@**$=-$*=@OOOOOOO+OOOO@=*$-=$**-$o*======;.==.. ",
"#&%==X=-===-=$@-=*$===;@#OOOOOOOOOOOOOO#-====$*=-@$=======X;=.. ",
"#%.==X===========*$==@#OOOOOOOOOOOOOOOOOO#@==$*=======;===X==.. ",
" # ==X-==========-*=O+OOOOOO+@OOOO@OOOOOOOOO=*-==========-X=-   ",
"# #==X@============;@#OOOOO@=OOOOOO=@OOOOO#-=============@X;-   ",
"&&&==@X--=====;=======@#OO@=@OOOOO+@=@OO#@=============-@X@==..&",
"X%.-==@XXX@-==========;=====OOOOOOOO================--XXX--=@..X",
"%XX.-===--XXXX@-;===========@OOOOOO@============--XXXX--==;@....",
"%%...#@=====--XXX@-====;=====#OOOO#=======;=;-@XXX@-=====@#.X..%",
"%%..X..#@======-@XXX--======;=#OO@========-@XX.@-====;@#..X..XX%",
".%X%X.X....#-=====-@XXX@-==;===@@======--XXX@-=====-#....X.X.%X%",
"X%%X.%%....X..#@===-=-@.XXX@-======-@XXX.@-=;=;=@#.......X%X.X%.",
"X%.%.XX.%X%..X....#@==;==-@XXX@--@XXX--====-@#.   X...%.%X%X%X%X",
"..................   ##-=;==-@XXXX@-====##.....   ..............",
"                         #@========-=@#                         ",
"## # #### ###  #              @-=@               # ##### ## ### ",
"##########@########                           ##################"
};
