/* XPM */
static char *mossy[] = {
/* columns rows colors chars-per-pixel */
"64 64 10 1 ",
"  c #2E2E2E",
". c #636000",
"X c #4E4E4E",
"o c #707070",
"O c #919100",
"+ c #B4AC00",
"@ c #D3CA01",
"# c #909090",
"$ c #AAAAAA",
"% c #D1D1D1",
/* pixels */
"                                                                ",
"XXXXXXXXXXX%@@@@@%%%%%%+++%  #$%%%%%@@@o##X X XXXXX XXXXXXXXXXXX",
"XXXoXXXXXXX%%++++#$@@%%$@@#  #$$$@o+OOO.XX   oO+O+oooooXXXXXXXXX",
"######## XX%%+++.#@@+%$%.+X X$%$#o@#.O.ooX   +@@O.#$%@@@oX@@o###",
"%$+$$$## XX%%OOO.$@O$$###+X  #%###$$oO.XoXX  +@@Oo#$%@@@ o@@Oo%%",
"$$++Xo#o XX%%OO.o##$$O#o#O   X$@O####.XoXX   +@.X#$@@#O+XoO..X##",
"$$.X###o  X%%+..o$$##O##o#X  XoOO+#$$oooX   XOO.oo@@@#.OXooXXo+o",
"$$##$#oX  X%%#o##$#%oO#$##X  Xo#$#$#o#$o  X  ..o##o@oo..Xoo#ooOo",
"#$$oo#XX  X%%$$o$@###$##$#X  XXooXXX    X    #o##$$##$oXo#####oo",
"###ooX    X%%$o$o@+o###$o#X  XXX      X      #$$#Oo#o##oo#####$#",
"ooooXX     %%#o$#@Oo$o$#$#X                  o$oOX#$@##o#o#oo#oX",
"XXXXX      $%$$o@+Oo###o#oX   XX Xo$$$$%%. XXo$#ooX#O XXXXXX XXX",
"          X#%%#o#Oo##$o#O#X    o$@@%%%%%%@.  X#oooXX.           ",
"         XXo$%#$###$####oXXX   #@@O##%#$O#.  XX       X         ",
"     X X XXXo%$#$#o##o#$OXXX  X$@O#$#@@#+X.X                    ",
"XX   X    XXo%#$#@Oo$#$#.XoX  X$@+##@@##OX. XXXXXX XXXXXXXXXXXX ",
"$#$##$###  XX$$O#OO$o###ooXX  X@@oo$@@o#.XX X@++oXXX#####$$####$",
"%@+%%@OooX XX#%.o#X#oo##o#oX  X@o###+.o##X   ++OX X#$@@@%+$$@@@%",
"@+O++O.oX  XXo#oo##o#X#oXo     o###@ooXXXo  XO.XX X#@@@o@O#$@OOo",
"+.$++O.Xo  XXX##oooooooXoX     ##o#oX       oOOoX X#@@o$O+o#@OOo",
"O$#+OO.XXX XXXoXX              #o X         o#O#X X#$o##O#o$+OO#",
"$#$+.XX#X   XX                 XX           #$#$X X#$#$#$o$#$OOo",
"o$#oXo#oXX XXXX         XXXX  X##$OOOO+oX  X$%$%X  ##$@##$#$$oo#",
"#@Oo###o    #@@+Oo$$$X  oO+@++%%%%@@@@+OO  o%%%$o Xo#$$#$#@$o$$$",
"#OO$##ooXX  @++Oooooo XX+@+o$$$#$$O#OOOO.  #%$$$@ X@$#$#@@o$##$#",
"#O####oX    ++OXooooX XX#%#$O#@$$#o$Oo+.   #@##$O XO.oo@+O..ooXo",
"oXXooX      +.Xo$OO.o X $%@$#@O#@+$#O$Oo.  #+o#$. X.   .... XXXX",
"XXX         +Oo##oO.X XX$%@$@+o$@O#$#$oX.  #o#$%. X           XX",
"         X X%o$$O#O.o  X$%+$@.o$#$$o+Ooo   @%$%$X    X          ",
"XXoo#o###o  %##$.#ooX  X$%+$O.o$##$#+.#X   +%$%$X X  X X        ",
"o#$++#$$$$o %$%#.$#oo   $%$@+.##$$$$+.#X. .+%%$OX X.+OO++OOXXX X",
"X$++.o$$$$X %%$$##o#o.  #$@O.oo$##o#+OoX  X+%%+OX XoO.+OO+++.#XX",
"o+OOo#$++oX %%$#$.#$X   X$O.oo##$o##+.oX   O%$+.X X#oo++O....o o",
"X+Ooo$o+Ooo %##$$###X   X$%$@@+#o#o#+OoX  .o%%+.X X%$$O.oo.ooo X",
"oo#$#o#+.oX %%$$#$$oX.  X#%%@O.o###$OOXX  O#%#O.  X%$#O.###o#o X",
"o$##$$++.oX %%o#@+o#X.  Xo%%O.oo#$#+Ooo   X#%#... X$$$O.o###$X X",
"X%$$##...oX $%##+O##o.  XX$%.oo#$#OooXo   X#$#. . X#$#OOo#oo#o  ",
"o%$$##..ooX %%#$####o   XX#%#o#oooXXooXX   X  ..  XoXXXXXXXXXX X",
"o%$#+O#o##X $%$o$#o#XX   XX##ooXXX  XXX   XXXX   XX             ",
"o%$$###+OoX o%$#$#o#oX.  XX         X   X  XXXXXXXX  X        X ",
"o%++##+OOoX X%$$###$oX.  XXX  X  XXXXXoXoooo#oo#OO.O#ooo#ooo#oXX",
"o++O$#+..XX o%##Oo#ooX.   oOO+OOO+Ooo##$$$$$$$$@+@+O%%@+%@OO%o X",
"X+Oo$##..o  X%%#Oo$#oX.   .@@@@@@@+O$%$%#%$$%$++OOO$$@+%$+++Oo X",
"o+Oo$####   X%#$oX##X     .++++++++O$$$$$@O$$#+O$#@@+o#$+++OoX X",
"X+O##$o$#X  X%$$$$#$oX.    ++O+OOOOO.#$$$+O$$$$$$@++o##$oo+ooX  ",
"XOo#$#$#oX  X%##$###oX     ###OOOOO..o$%$#o#%##$+oo#$$$$##+ooX X",
"X####ooXX   X$$##$#ooX     %%%O...Ooo#$$#$#$#@@##oo##@+$$#+ooX  ",
"XooooXXXX   X##$o##oX      $%%Oooooo$#O$$$#$@$##$###$+O$##oooX  ",
"X  XXXXXX  XX#oXXXooXX     #%%o###++O$##$#$$$#+$+$#$+O#$$#++oo  ",
"XXX        X  X      X     o%$#$$$++.#$#$$##@+.#$%#$$#$###$ooX  ",
"XXXX       X               o$oooooO..#$o##$@+.$#$###$o##@##$oX  ",
"Xo$@@@O#XXXX               XX       Xooo#+$O.##ooo####o$oooooX  ",
"X$+@@@@@+O$#ooXX  X  X    XXXX       XXXXXXXXXXXXXXXXXXXXXXXX   ",
"X$@@+##o#$%+@@@@@+++++OoooXoXXXXXXXXX                           ",
" $$#+#%%$%$$$##OO+OOOOOO##$$$$$$#XXX     X                    XX",
"X$%%#%$$$#%$$%$$#####O.O#$%%@@#%o XXXXXX   XX  X X         XXXXX",
" $$%%$%@+O$$%$%%%@O######$$#@O#oo  XXO+++oXXXXXX.+OO...XX XXXXXX",
"X$%%$#o+O.%$%%$$$%$%$$$%$o$%$##XX  XX+OOOX%%$XXO@@@O#@$$%@$##XXX",
"X$#ooXX..ooooooooXXX##$#ooXoooXXX   Xo.O.o$$$oX#o#ooo$$#+Oo$%# X",
"X#XXX            X     XX X         X$O.o#o##oX##$#$@@$$OOo#$X X",
"X                                   X  .XooXXoXXX$$@+Oo$Ooo##X X",
"XX                                   X .       XXX..XXX..XXXXX X",
"XXXXXXXX  XXX    X     X     X X    XX XX  X X XX              X",
" X  X     X      X     X     X    X      X    X                X"
};
