/* XPM */
static char *pillar[] = {
/* columns rows colors chars-per-pixel */
"64 64 7 1 ",
"  c black",
". c #2A2A2A",
"X c #4B4B4B",
"o c #6F6F6F",
"O c #9F9F9F",
"+ c #CDCDCD",
"@ c #F6F6F6",
/* pixels */
"                         OOOOOOOOoOoooooo                       ",
"                    OO@+++++++OOOOOOOoooooXXXX                  ",
"                  +@@@@++@@+++++OOOOo+OooXXXX.X.                ",
"                 @@@@@@@@@@@+++++++OOOoOOXXXX....               ",
"                +@@@@@@@@@@++++OOOOOoOoXooX.X.. ..              ",
"                @+@+@@@@@++++OO+OOOOoooooXXX......              ",
"                +++@@@@@@@+++++OOOOOOoooXX........              ",
"                 ++@@@@@+@@@+@+++OOOoOoXXXX......               ",
"                   O@@@@@@@@+OO+OOoooXXX.X....                  ",
"                    O++@@@@++++OOOoooXX.......                  ",
"                     O+@@@@+++OOOOooXoX.... .                   ",
"                     OO@@@@++++OOoOooXXX.....                   ",
"                     O+@@@@+++OOoOoooXX..X...                   ",
"                     O+@@@@@++OOOOoooXXX... .                   ",
"                     O+@@@@++++OOoooo.oXX....                   ",
"                     O+@@@@+++OOOOOooXo......                   ",
"                     O++@+++OOOooooXXXX. . ..                   ",
"                     OOOOOOOOOooooXX.........                   ",
"                      +@@@@@++++OOOoOoXoX...                    ",
"                     +@@@@@++++OOOOoXXXX.....                   ",
"                     ++@@@@@+++OOoOXoXXXX....                   ",
"                     O+@@@@++@OOOOoooXX......                   ",
"                     O+@@@@++@+OOoOooXXX... .                   ",
"                     O+@@@@+++O+OOooXoX.X. ..                   ",
"                     O+@@@@+++OOOooooXX.X....                   ",
"                     OO@@@@+@+OOOOOoXXXX.....                   ",
"                     O+@@@@++++OOoOooXX.X. ..                   ",
"                     O+@@@@+O@OOOooooXXX.....                   ",
"                     O+@@@@+++OOOOoooXXX.....                   ",
"                     oO+@@+OOOOOoooXX...... .                   ",
"                      OOOOOOOoooXo.XX....                       ",
"                     O+@@@@@+++++OOOOooXX...X                   ",
"                     O+@@@@@@OO+OOoooXX......                   ",
"                     O+@@@+++++OoOooOXXX.X ..                   ",
"                     O+@@@@++@OOOOoooX.X.....                   ",
"                     O+@@@@@+O+OOooooXXX... .                   ",
"                     O+@@@@+O+OOOoOooXoX.....                   ",
"                     OO@@@@+@++OOoooXXX.X....                   ",
"                     O+@@@+@+++OOOoOoXX......                   ",
"                     O+@@+@@++OOoOoooXXX.X ..                   ",
"                     O+@@@@+++@OOoooXoXX.....                   ",
"                     OO@@@@+@+OOOOoooXX......                   ",
"                     o+@@@@+++OOOOOooXXX.. ..                   ",
"                      O+++O+OOOoOooXXX......                    ",
"                     O@++++OOooXXX.X.X.. ....                   ",
"                     O+@@@@@@@++OOOOoooXX. ..                   ",
"                     O+@@@@++OOOOoOooXX..X...                   ",
"                     O+@@@+@++O@OOoooXXX.....                   ",
"                     O+@@@@++++OOoOooXXX.....                   ",
"                     O+@@@@@+OOOOOooXoX.X. ..                   ",
"                     OO@@@@+++O+OOOXoXXX... .                   ",
"                     O+@@@@++O@OOooooXXXX....                   ",
"                     O+@@@+@++OOOOooXXXX.....                   ",
"                     OO@@@+@+++OOooooXXXX. ..                   ",
"                    O@+@@@@@+O+OOooooXX.X.....                  ",
"                   O@@@@@@@+++OOOOOooXXX........                ",
"                 +O@@@@@+@@@+++++OOOOooXXX.... ...XXXXXoXoo     ",
"                +@@@@@@@@@@++++++OOOOoooXXX.. ......XXXXXXXoo   ",
"                ++@@@@@@@+++++OOOOOOoooooX.X.......X...XXXoooX  ",
"                +@@@@@@@@@+++++OOOOOoOoXoooXXX.....X.XXXXXXXXo  ",
"                 @@@@@@@@@@@+@+++OOOOOOoOoXXo.....X..XXXXXoXo   ",
"                  +@@@+@++@++++O++OOOOoooXXXX.X.XXXXXXXXoXo     ",
"                    OO@+++++O+OOOOOOoOOoooXX.XXXXooXooXoo       ",
"                         OOOOOOOOOoOoooooXXXXXXoo               "
};
