/* XPM */
static char *purplestone[] = {
/* columns rows colors chars-per-pixel */
"64 64 11 1 ",
"  c #382C14",
". c gray22",
"X c #493619",
"o c #5C4020",
"O c #6D4925",
"+ c #520052",
"@ c #6C0070",
"# c #545454",
"$ c #80502C",
"% c #870087",
"& c #B400B4",
/* pixels */
"@@@+ ++++@%+@++++ +++@@@@@++ + .+ +++@%%@++++.+ +..+.++++++++@++",
"o%@@++ +@@@@+@+ .+++%%OOOo@+++++.++++@%%%@%@+++ .+..++++@@%OOOOO",
"Oo%%%@++@@+@@++++++%&OOoooo+++++++++@%%%@%@@+ ++..+.+@+@@%OOOOOO",
"ooo%@++@++@@++ ++++%%Oo%@@o@++++++++@@@%@@+++++++++++++@%OoOOXo+",
"%oX@%@+++++++++++++@%%@+@%O@++ooo%@++@%@++ooOooo   X+++@%OOOX+X@",
"@oX%%@@+@@%%%%@@@++@@%@%%@X++OOOOO%@++@.XOOOOOOooXooX++@%@OoX@X%",
"@%o@%@@@%%%%#@@%%@@++@+%@@ +oOOoXo%@+X.OOOOOOoXo o XoX++@%OoX%o@",
"%%o%@@@%oO%OX@+@@@%@+@++@+.+OoX++X@+ XOOOOOOOXoX+ ++o X++%Oo %o+",
"@%o@+@%OOOOoX@++++@@+@@+@@O@oo+%@X%@ OOO$$O$OX+X+X@@o+X++@oXX@X+",
"+@o+@%%OOOooo@@+@+@+@+@@@@o+oo@%%X@XOXX$$OOOo + +o%%o@X+++ooX%X+",
"+@X@@%%OOoooX@+@@ooooX+++@X+X+%@@ +XoO@$OOOOo +++%%Xo@X +++oX@++",
"++ @%%&OOoXXX@+@oOoOoo@+@+++X@%+@ + oX@$OOooooX%+%oXoXXX@++XX+++",
"++ @%&%@oX.@X+@+OOo@oO%@++++X+++++++X %OOoo+@oX %%XXXXX @@+XX+++",
"+@X@%%OOOoX+X++oOo@@%o%@++ +++++++++oX%Ooo+@%@o OOXXX%XX@%++++++",
"+@+@%OOO@@@@ ++oOo+%@o%@++++++@%%@++XX@O+X@%%%OoOo @@@ .@%@+++++",
"+++@%Oo@%%%@ ++oOo+%+o++++  X+@@@@++X+%O%o+XXOOOo @%@+@X @++++ +",
"+@+@%O@%&@@@ ++O%X+@+X+++oOOOoX+@+++X+%O%XXOOOOOOXX@@+%XXX++++++",
"++@@@O@%%+++ ++O%X+@+X++O$O$OOo+++++X@%+%XOOOOXoXo @%@@@XX +++++",
"+++@@O@&+@%@ ++@%@%@+++%$OoOOXOo++++X@@@+oOOXoXX XX@@++%@X++++++",
"+@++@@%@+%@+ +++%%@++++%o@&%%&oXXX++ @%+XoOoX +o+o @+@+%@ ++++++",
"@@@++@%++@@%@@@@@@++++%O&&%%%o%XXX++X@@++oOX +@+@o @+@+@@X++@@@@",
"O%%@+@@+@++@%@++++++@%OO%&%OXXXXX  @X@+++o%oX@@++ +@@++++X+@%OOO",
"OOO%@++@+@%+++ +@+@@%OOOOOOoX+@X+ XXXX@+@X%X +@+@@+@++++Xo%%OOOO",
"OXOX@++@%%%++++ooX+@%OO@%OXo+@%+XXXoOo++@@%X@++++%@+@+++XoOOOOOO",
"oooX@%@@%%%@++ oXX+@%OO@%Oo +%+XXXXXooX@@@% %@@%%@@@++++oOOO%%%O",
"++X X@@%%%@+++O@+X@@%OOOOo X@%XXX XXXXXo %@@@%%@@+@ .++@OOO%%@@@",
"+++XX@+@@@+XOOO+@  @@OO@++@@%%oXXX++@ooX X@%@@%@++++++@%OO&&%+@+",
"%%%oo+%@++XXoo+++X+@%%O@+@OOOo XXXo%%X@oXXX@++@+++ +++%OOOOOOO++",
"+@@oo+@+++X@@o@@%@++@@O%&%&%&XX@@XX%%o@XoX +++++ooo++@%OOooo$OO@",
"@@%Oo%++++++@X%%@++++%%%%&%%@oX+%%X+@o@ooX ++++ooo@+@%%Oo%&&OOO%",
"@%@oo@+@+++@@XXXXX+++%%&&@%@ooX@%%X++X+oXX.@+ +Xo%%%%%&O%&%%%&Oo",
"@%@XX%@%@@@%&%%%@o  @%&@oOOXXX@%@@ @@@@ooX @+++o%%%@@%%O@&@@&%oo",
"+%+XX%+@+@%&&%ooo%o+%%%oOooXo@%%@%+@%%%XXXX@+++X@@%@@%%O%&@+%%Xo",
"+@%oo@@@+@%&&ooooo@+%%%Oo +XX &%@@@@%%%oXXX@+++X@@@+@%@O%%@+@XXX",
"+@%Oo@%%+%&%ooXX@X%+@%@OX+++XX%@++@%%@+XXX @+++X++@++@%o@%@+@XXX",
"%+%oX@%@+%%%@oXX%X@+%%+X++@+XX++++@@%@+oX+@@+++ +@++++@o@%@+++oo",
"++%Xo@@++@%%@XXX@X++@@@X++@+. +++++@%++o +@++++X+++++++o+@@@++oo",
"@+@X@++++@%%%XoX+X+++@@O++++  ++@+@%++@@X@%@@@@X+++++++o++@+@@OO",
"+@%@@+++++@@%@X++ +++++X+@++  ++++++@@+@X+@@%%%X++@@@@+o++++++OO",
"++@++++++++@@+X++++++++ +++%@  ++++@%%@@+X+@%%@X+@%%%%@++++ ++oo",
"+@+@@@@+@++@@%%@@@++++@X+++++ ++++@%%@@++X+%@++XXoo%%%%@++++++  ",
"++@%OO%@%@+@%%%%%%%+@++ +++ +  +++@%@++@@++++%XOoOOoo%@@%@+++ X ",
"++@OXOX@@+@@%%OOoX@@%@+ + +++.++@@+@+++++++++@%oOoX+o@%@%%@+++  ",
"++%O@@o++@%@%OOoXo++@++ +++++ +++++@++++++++@%%OOX +X@%%%@%@++X ",
"+@%X@%o%@%%OOOooXX+++++X+ooXXo%@+@+@@@++++++@%&o@X++++@%@+@+@+X+",
"++@o@+X@@%%o%O++XX+@++.XoOOooO&&%++@%%@@+++@%O%X%o+.+@%%@++@@@ +",
"+++X@%%@%%@o+%+++X@%@++XO$OOoO@&%OX@%%@%@+@%OO%X@++++Xo&%@@@%@ +",
"+++X@%%@%%@+%++@%&X%@++X$OOOOO@&%OOX%@%@@+@OOO%X@++ XooO%@%@@+++",
"+++ ++@+@%@+++@@%@X@+++OOOOOOOO@&%oo@%@%@@OOOOOO+XXoOOOo@@%@@%@ ",
"+++ +++++@@++@+@@ @%@+OOOXOXoOOo@%%oX@@@@@OOooooO%%OOOoo++@@@%@ ",
"+++ +++++@@@+++++ +@++%OoooXoooo@%%OX+++@OOoo++++@@oX+oX+@%%@%@X",
" +  +++++++++@@++X++oOOOOoXoXoXXoO@oX++++Oo@X+++@@%oX@oX@%%@+@++",
"++..+++++++++++++X XOXX oXooXXooXooooX+++o%@X+XoOX o%%@X%%XoX+@ ",
"+ + .++@@@%%%%%@+XXOoo  XXoXX+++@@ooooX +X@%X@oooXXo%@@X@ooooX+X",
"+.+ ++@%%%OOOO#%@+Xoo +  + X +%@@+XXXXoX+X+@X%@X+  o@++X%@@ooX++",
"++++++@%&oOoXoXo@+Xo ++ X+XX @%@%%    X +X++X%@X+ X++@+X@+@X X++",
"+ +++@%%%O+@@@oX@@Xo +++X+++X+@%%%   +X ++++ @@ +XX+@%+.++@XXX++",
"+++++@%&+o@%@%@o@+ %%++% +%+X+@%@@  ++  ++++ ++X+Xo +++ +@++ooo+",
"+++++@%Xo oX%@%X@@ +%%+@X+++.@+@+++ +@X ++++ ++++o@oX++X@@+oOOOX",
"++++oOoO@%@@@@@X@% +++++ X X @@++++ @+  ++++X@@+%o%@ X+X++o$Ooo%",
" +++OOooO@@@% X X X++%+ XXXXoX   X  X+  +@+@%%%@+X X  X  XO$o@X ",
"   %O+@%o%+@ XoXXXXXX XXo%oooOoooXXoX X @%@@%%@XXXXXoooooO$oX%@X",
"    o@%+XX XXooOOoOOXXXXXoOOOOOOoooooooXXXX X  XXXooOOOOOOoXX  X",
"##.X XX  X.X X   ..####. X X X  X    X   X .####.X XX X X  X .##"
};
