/* XPM */
static char *redbrick[] = {
/* columns rows colors chars-per-pixel */
"64 64 9 1 ",
"  c #2F2F2F",
". c #4D0000",
"X c #6E0000",
"o c #4C4C4C",
"O c #646464",
"+ c #8D0000",
"@ c #AB0000",
"# c #D10000",
"$ c #EA0000",
/* pixels */
"   o    o   o       o   o  o  o  o    o   oo   o   oo   o     o ",
"O oooooooooooooOooooooooooooOoooooooooooOoooOoooooo   ooOoooooo ",
" $$#########@ooo$$################$#@o O$$$$$#$##$########@@@#@o",
"o$#@@#+@#+#@. oo$@+@+#+@X@@#+#+@X@#@X o #@#@#@@#X#X#@#+@@X#@#@X ",
"o#@X@+@@X@+XX oo#@++@+X+@X+@@X+@X@+X. oo#@@XX@+X+@X+@@X@X+@X@X. ",
"o#X@@X++@X@.. oo#+#@X@X@+@X@X++@X++X. oo#X@.X@.@X@X@+@X@@X@X@X. ",
"o#@+++X@XX@X. oo#@X@++@@X+X@+X+X+X@X.  o#X@+@+X@XX@@X@+@@X@.@X. ",
"o@X@@X@@X@... oo@#+@X@X@X@X++XX@X+XX.  o@+@.+@X+X+X@X@.@X+@X@X. ",
"o#@XX.XX.XX..  o@+XX.+XX+X.X+.X..XXX.  o@XXXXX.+.X.+.X.XX.X+XX. ",
"oX.X.........  oX.X.X................  oX..XXXX..XX.......X.... ",
"oo             Oo                     oO                        ",
"o o  oooo     o oooooo    ooo o  oooooo oOoooOOOOoooo  oo ooooo ",
"$###@@##@#@@@@#@ooo$$###########@##@@#@#@#@#@#@@@@#@+ooo$$##@###",
"@++@@X@X@+@X@++. oo$X@#X@X+@+X@@@+X+@+@X@X#.#+@@#@#@. o $#+@+@+@",
"X@+@+++X@+.+@@X. oo#@+@X@@+@X@X.X@X@X@X@@+X@X@X+@X@X. oo#@X@+X@@",
"X@@++.@X++@.@XX.  o#X@+++XX++X@+X@+XXX++@.+X@X@X@@XX. oo#X@@@X@X",
"@++@+X+++@+.@X..  o#X@@X+X+@XX@XX@X+X@.@+.@.@X+X+X@X.  o@+X@X@+X",
"X@.@X+X+.@X+@@.. oo#@.@+@+.+.+XX@++.X@X+.+@XX@XX@X@X.  o@X@@X@X+",
"X@.X.XX@X+X.+XX. oo@@X+.X@X+XX+.X@X@X+X++.@XX+.X@XXX. oo@@XX.X@X",
"................ oo@XX.XX.XX.XX.X..X.....X..X........ o @X......",
"                 o oo         o                       ooo       ",
"ooo  oo O  o   oooOooo  o   ooooo Oo o   o ooo  ooooooooo  ooooo",
"o$$#######@@@#@@@#@@#@@@#@@+ooo$$###########@##@@@#@#@@@#@#@@@@o",
"o$+@#X#X#+@+@+@#+@+@+#@X@#X. oo$@X#@@+@@+@+@XX@+X+@X+@@+@++@.+. ",
"o$@+@+@XX+@@+++@+X@X@+.+@X@. oO#@@@.@.+X@+.@.+@.@X@X@+@X@+X@XX. ",
"o@X@@X+.@X+X@++@.+@X+@+XX@X. oO##X@X@X@X+++@X@+X@XX@+X++@@X@XX. ",
"o@@+@.@.X+@+XX@X+.X@.@+X+X.. oO#X@X++X++X@XXX+@X+X+X@+@.@X+@X.. ",
"o@XX@.+X@.@.@X@+X+@+X@.+XX@. oo##X@X@+@+X@X@.XX.@.@.@.@@XX.X+.. ",
"o#@XXXX.X.XX+X+XX+XXXX+X@XX.  o#@X@XX.XXXX.+X+.@.X@.X+.@.+.@XX. ",
"o@+X.XXXXX.X.X.X............  o+.X.XX.XX..XXXX....X.........+.. ",
"oo                    o      ooo               o                ",
"ooOoooo o   ooOOoooooo o  o  oooooo ooooo   o oooo  ooooo ooooo ",
"@#@@#@#@@@+o O########@@@@#@#@@@@#@@##@@oOo#$########$@@#@@@#@#@",
"@@@@+#@@#@. o #@.@X@@X@+@@X@+X@@.@@X@X@. oo#@X@X@@X@XX+@X@+@X@X@",
"@X+@+@+@+X. oo#X@X+@X@+X@++XX+@+X@X+@.@. oo#@.@X@X.@+@++++X+X@+X",
"++@@X@X@@X. o #X@@X@@X@X@+@.@.++@+X+@X+.ooO#@X@X@+@+@@X@X@+@@X@X",
"@+X@+@@X+X. oo#+X@X@X.@+++X+@.@+X++X+@X. oO#X@@X@.@@XX@X@++@+XX+",
"@XX@X@X+@X. o #X@X.@@X++@X@X+.X+.@+X@X+. oO#@X@@X@+XX@X@X++@X+@X",
"XX+@XX+XXX. oo+X@@.@+X@X@X@.+X@+X+X@@.X. oo#@.@X@@+@+@X@X+X+X@@X",
"......... . oo@..X.X.XX..X......X.X..... oo@.XX.X.XXXXX.XXX.X...",
"            ooo                          ooo    o oo            ",
"ooO o  oo    ooo  oo oooooo   ooooo o o ooooO ooooOooo  ooooooo ",
" $########@@#@#@@@#@#@#@@##@@@#+ O $##########@@#@@@@@@#@@#@@@@o",
"o#@X+@.@@X@@X@X+@X@X@+@X@.@@XX@. oo$@@X@X@.@X@.@+X@+X@+X@X+X+@. ",
"o#@.@XX@++X@.+.@+X@.X@XX@X@X@XX. oo#+@X+.+.+.@+@.@X@X+X@+X+@XX. ",
"o#+X@X+XX@X@+X+@X+++.+@.@.+X+XX.  o#+@.X+@X.@X.@@.@XX@X@X@X+X@. ",
" #@X@X.@+X+@+@.+@.@.+@.@@X@@@XX.  o#@X@+.@.@X@XX.+.@X+@+@XX@++. ",
"o#@X+@X@.@X@.@X@XX@.+X@X+.@.+X+.  o#@..@XXX@.@.@.@.+X@XX@X@XX.. ",
"o#@.@XXX+++@+X+@+.+X.X@.@X+X+X@.  o#X@.+X@.X@+.@X+X@.@X@X+.@.@. ",
"o@XXX.XX.X...................... oo@.XXXX.X.X...X.............. ",
"oo          o                    ooo                            ",
"o o ooooooooOOooo oooo     oooo ooo oooooo oooOoooo oo      ooo ",
"#####@@##@#@@@#@@@ooo$$#########@@#@@#@@@@#@@#@o O$#####@@#@@@@#",
"X@.@@X+X@X#+@X@X+. oo#@@@@X@.@X@.@X@+@X@.@.@X.. oo#@X+@.@X@X+X@X",
"@X+@X@.+XX@.XX+X+. oo#X@X@.X.X@X@+X++XX+X+X@.@. oO#X@.@X@X+@X@+.",
"@X.+@X@XX@X.@+X+X. o #XXX@XXX@.@.@@.@X@.+.++... oo#.@XX@@+X+X.X+",
"X@.@XX@X@X@.XX.@.. o #@.X@.@.@X+.@.+XX@.@+.X@.. oo#@X.@+XX@X@XX@",
"X@X@.@.+@X@+X+@XX. oo#.@@X@+X+X+.@X@X+XX+X.+XX. oo#X@+@X@+XX.@X@",
"X@XXX+@.+XX.@.@X+. oo#.@X@XXX+.+.+.@+.@+.@.+.+.  o#X@...@X@X..+.",
"X+.@XXX.X+@.@XX+.. oo@@.X+.@.+.+X@X.@XX@X+X.X+.  o#.X.+.@X+X@X@X",
".................. oo+......................... oo@.............",
"                    ooo                          oo             ",
" O o o ooooooo ooooOooooooooooooo oooo  oo   oo  Ooo Ooo oo oooo",
"oooOoOooooooOOooOooooOOooooooOooOooooOooooOoooooOooooOoooooooooo"
};
