/* XPM */
static char *small[] = {
/* columns rows colors chars-per-pixel */
"10 10 96 2 ",
"   c #5A1919",
".  c #552727",
"X  c #582828",
"o  c #733333",
"O  c #4C0E4D",
"+  c #520652",
"@  c #540755",
"#  c #550755",
"$  c #510E51",
"%  c #550855",
"&  c #520F54",
"*  c #530F55",
"=  c #550D55",
"-  c #560D55",
";  c #540F54",
":  c #550F55",
">  c #501251",
",  c #561557",
"<  c #561657",
"1  c #561558",
"2  c #5C165B",
"3  c #5B185B",
"4  c #5C1A5C",
"5  c #611D5F",
"6  c #59205B",
"7  c #5A205C",
"8  c #73375A",
"9  c #72375B",
"0  c #621D61",
"q  c #662D61",
"w  c #652E60",
"e  c #692E62",
"r  c #653166",
"t  c #703B65",
"y  c #6F3F70",
"u  c #564343",
"i  c #5A4040",
"p  c #7C4F4F",
"a  c #79415A",
"s  c #7A425B",
"d  c #675857",
"f  c #685D5D",
"g  c #735550",
"h  c #7F5252",
"j  c #7F545A",
"k  c #7C5859",
"l  c #674061",
"z  c #71416B",
"x  c #71416D",
"c  c #74456E",
"v  c #7B5478",
"b  c #7E6E6F",
"n  c #7F6E6F",
"m  c #7E627B",
"M  c #813737",
"N  c #82493D",
"B  c #8C493B",
"V  c #874E4E",
"C  c #8D4B4B",
"Z  c #8D4D4D",
"A  c #8F4E4D",
"S  c #934F4E",
"D  c #835352",
"F  c #815756",
"G  c #895453",
"H  c #8E5459",
"J  c #825F5F",
"K  c #8A5E5D",
"L  c #8A5F5D",
"P  c #975758",
"I  c #9A5B5A",
"U  c #8D6058",
"Y  c #816060",
"T  c #8E6E6E",
"R  c #996061",
"E  c #986062",
"W  c #9B6464",
"Q  c #83677E",
"!  c #8A667A",
"~  c #886B7A",
"^  c #8F7070",
"/  c #8F7C7E",
"(  c #99777A",
")  c #A8886A",
"_  c #A8886B",
"`  c #957F82",
"'  c #967B87",
"]  c #97848E",
"[  c #9D8389",
"{  c #9D8B8A",
"}  c #9C8B8B",
"|  c #9C8492",
" . c #9D8492",
".. c #9E8890",
"X. c #ACA4A1",
"o. c #B1A9A6",
/* pixels */
"B V F Z Z F G S C N ",
"U / ~ ..' ( [ ! [ g ",
"I Q 6 r x t q 4 m h ",
"E z > @ 2 4 % < l j ",
"H q $ % 5 0 % O e j ",
"P c > < % > 2 > z h ",
"E  .a 9 % % 9 a  .Y ",
"E X._ U 4 4 K _ o.k ",
"M ^ }  .v v ] } T o ",
"  X i f n b f u .   "
};
